<svg viewBox="0 0 1877 641">
    <title>
        Zajno, Digital Design Studio
    </title>
    <path d="M1834.6,166.2c4.2,2.4,8.9,3.6,14,3.6c5.2,0,9.9-1.2,14.2-3.6c4.3-2.4,7.6-5.6,10.1-9.8c2.5-4.1,3.7-8.7,3.7-13.7c0-5.1-1.2-9.7-3.7-13.9c-2.5-4.1-5.8-7.4-10.1-9.8c-4.3-2.4-9-3.6-14.2-3.6c-5.1,0-9.8,1.2-14,3.6c-4.2,2.4-7.6,5.7-10,9.9c-2.5,4.2-3.7,8.8-3.7,13.9c0,5,1.2,9.6,3.7,13.7C1827,160.6,1830.3,163.8,1834.6,166.2z M1830.1,131.8c1.9-3.3,4.4-5.9,7.6-7.8c3.2-1.9,6.8-2.8,10.8-2.8c4.1,0,7.7,0.9,10.9,2.8c3.2,1.9,5.8,4.4,7.6,7.7c1.9,3.3,2.8,6.9,2.8,11c0,4-0.9,7.6-2.8,10.9c-1.9,3.3-4.4,5.8-7.6,7.7c-3.2,1.9-6.9,2.8-10.9,2.8c-4,0-7.6-0.9-10.8-2.8c-3.2-1.9-5.8-4.4-7.6-7.6c-1.9-3.2-2.8-6.8-2.8-10.8C1827.3,138.8,1828.2,135.1,1830.1,131.8z"></path><ellipse cx="856.7" cy="44.8" rx="44.8" ry="44.8"></ellipse><path d="M1844.5,147.4h4.1l5.7,10.1h7.1l-6.5-11.4c2-0.7,3.5-1.8,4.6-3.3c1.1-1.5,1.6-3.3,1.6-5.2c0-2.9-1-5.3-3.1-7c-2.1-1.7-4.9-2.6-8.4-2.6h-11.7v29.5h6.5V147.4z M1844.5,133.3h4.8c1.6,0,2.9,0.4,3.8,1.1c0.9,0.7,1.4,1.8,1.4,3.2c0,1.4-0.5,2.5-1.4,3.3c-1,0.8-2.2,1.2-3.8,1.2h-4.8V133.3z"></path><path d="M98.3,472.1l210.1-182.9c69.1-60.2,26.6-173.9-65.1-173.9H1V205h236c11,0,16,13.6,7.8,20.8L34.6,408.7C-34.6,468.8,8,582.5,99.7,582.5h235v-89.6H106C95.1,492.9,90,479.3,98.3,472.1z"></path><path d="M1642.8,115.4c-128.9,0-233.7,104.8-233.7,233.6c0,128.8,104.8,233.6,233.7,233.6c128.9,0,233.7-104.8,233.7-233.6C1876.5,220.2,1771.7,115.4,1642.8,115.4z M1642.8,492.9c-79.4,0-144-64.6-144-143.9c0-79.4,64.6-143.9,144-143.9c79.4,0,144,64.6,144,143.9C1786.8,428.3,1722.2,492.9,1642.8,492.9z"></path><path d="M1154.5,115.4c-54.3,0-104.3,18.6-144,49.7v-49.7h-89.7V349v233.6h89.7V349c0-79.4,64.6-143.9,144-143.9c79.4,0,144,64.6,144,143.9v233.6h89.7V349C1388.2,220.2,1283.4,115.4,1154.5,115.4z"></path><path d="M901.6,115.4h-89.7V349c0,90.5-47.9,170.1-119.6,214.7l47.4,76.3c22.1-13.7,42.7-30.1,61.6-48.9c64.5-64.4,100.1-151,100.3-242.1h0v-1c0,0,0,0,0,0h0V115.4z"></path><path d="M792.6,349V115.4H703v49.7c-39.7-31.1-89.7-49.7-144-49.7c-128.9,0-233.7,104.8-233.7,233.6c0,128.8,104.8,233.6,233.7,233.6C687.8,582.5,792.6,477.7,792.6,349z M559,492.9c-79.4,0-144-64.6-144-143.9c0-79.4,64.6-143.9,144-143.9S703,269.6,703,349C703,428.3,638.4,492.9,559,492.9z">
    </path>
</svg>